G04 DipTrace 4.3.0.5*
G04 2 - Bottom.gbr*
%MOIN*%
G04 #@! TF.FileFunction,Copper,L2,Bot*
G04 #@! TF.Part,Single*
%ADD16C,0.047244*%
%ADD17C,0.03937*%
%ADD18C,0.031496*%
%ADD45C,0.035433*%
%ADD46C,0.043307*%
%ADD47C,0.07874*%
G04 #@! TA.AperFunction,Conductor*
%ADD19C,0.023622*%
%ADD20C,0.027559*%
G04 #@! TA.AperFunction,ComponentPad*
%ADD23R,0.098425X0.066929*%
%ADD24O,0.098425X0.066929*%
%ADD25C,0.082677*%
%ADD26C,0.086614*%
%ADD27R,0.137795X0.070866*%
%ADD28O,0.137795X0.070866*%
%ADD29R,0.066929X0.098425*%
%ADD30O,0.066929X0.098425*%
%ADD32O,0.07874X0.11811*%
%ADD33R,0.082677X0.074803*%
%ADD34O,0.082677X0.074803*%
%ADD35O,0.086614X0.070866*%
%ADD36O,0.070866X0.086614*%
%ADD37R,0.074803X0.082677*%
%ADD38O,0.074803X0.082677*%
%ADD39C,0.090551*%
%ADD40C,0.07874*%
%ADD41O,0.098425X0.07874*%
%ADD42C,0.11811*%
%ADD43O,0.086614X0.066929*%
%ADD44O,0.098425X0.062992*%
%ADD88C,0.021872*%
%FSLAX26Y26*%
G04*
G70*
G90*
G75*
G01*
G04 Bottom*
%LPD*%
X1232042Y1541962D2*
D16*
X1095769Y1405689D1*
Y1289107D1*
X1365227Y1674715D2*
D17*
Y1519348D1*
X1356858D1*
X871780Y1707349D2*
X863040D1*
Y1647801D1*
X765296Y1550057D1*
Y1255087D1*
X856359Y1164024D1*
X936906D1*
X998945Y1226062D1*
Y1452261D1*
X1215228Y1668545D1*
X1232031D1*
Y1939600D1*
Y1666645D1*
X1332921D1*
X1340992Y1674715D1*
X1365227D1*
X871780Y1707349D2*
X743929D1*
X615463Y1835815D1*
Y2303923D1*
X635224Y2323684D1*
X639952Y2491444D2*
Y2328412D1*
X635224Y2323684D1*
X639952Y2491444D2*
Y2464402D1*
X896006D1*
X2959504Y1565714D2*
Y1030855D1*
X2539679Y611030D1*
X2009391D1*
X1977345Y643076D1*
X1596539D1*
X1467405Y772210D1*
Y1072340D1*
X1695817D1*
X1741874Y1118397D1*
Y1339763D1*
X1977485D1*
X1457777Y2329356D2*
Y2448152D1*
X1531636Y2522012D1*
Y2663432D1*
X1541531D1*
Y2866467D1*
X1614695Y2939631D1*
Y3311719D1*
Y3438353D1*
X2199571Y3623403D2*
Y3172465D1*
X2100189D1*
X2000086D1*
Y3522744D1*
X1849759Y3673071D1*
X1400508D1*
X1103703Y3376267D1*
Y3280673D1*
Y3177604D1*
X1365221Y1774715D2*
X1417424D1*
X1461047Y1731092D1*
Y1450200D1*
X1430195Y1419348D1*
X1356863D1*
X871777Y1807349D2*
X1101657D1*
Y1721482D1*
X895769Y1515593D1*
Y1289101D1*
X1467405Y1072340D2*
X1247834D1*
X1194969Y1125205D1*
Y1368750D1*
X1245568Y1419348D1*
X1356863D1*
X871777Y1807349D2*
X773557D1*
X715820Y1865087D1*
Y2117412D1*
X799334Y2200927D1*
X891424D1*
X1101657Y1807349D2*
Y2004145D1*
X1149976Y2052463D1*
X1202110D1*
X1271309D1*
X1347233Y1976540D1*
Y1804592D1*
X1365221Y1786604D1*
Y1774715D1*
X948712Y3018118D2*
X1057599D1*
X1103703Y3064222D1*
Y3177604D1*
X948712Y3018118D2*
Y2835236D1*
X935333Y2821857D1*
Y2593513D1*
X764459D1*
X952737D1*
X996006Y2550244D1*
Y2464404D1*
X935333Y2821857D2*
Y2840843D1*
X969770Y2875280D1*
X1541531D1*
Y2866467D1*
X735224Y2323687D2*
X864463D1*
X869315Y2318835D1*
X891424Y2296726D1*
Y2200927D1*
X869315Y2318835D2*
X929460D1*
X996006Y2385381D1*
Y2464404D1*
X1202110Y2052463D2*
Y2191116D1*
X1194651Y2198575D1*
X1103703Y3297544D2*
D18*
X1098668D1*
Y3280673D1*
X1103703D1*
X1614695Y3311719D2*
D3*
X2199571Y3751233D2*
D17*
Y3623403D1*
X2705206Y3517265D2*
D18*
Y3395034D1*
X2699417Y3389246D1*
X1541531Y2663432D2*
Y2794492D1*
X2100189Y3172465D2*
Y3079960D1*
X2102732Y3077416D1*
X2585296Y3080872D2*
X2691235D1*
X2699417D1*
D17*
Y3389246D1*
X1472456Y1187369D2*
D18*
X1467405Y1072340D1*
X1472456Y931463D2*
X1467405Y1072340D1*
X2320120Y2501091D2*
Y2544992D1*
X2312332D1*
Y2835421D1*
X2490966Y3014055D1*
X2640455D1*
X2691235Y3064835D1*
Y3080872D1*
X2277485Y1439763D2*
D19*
X2180313D1*
Y2490507D1*
X2234799Y2544992D1*
X2312332D1*
X2277485Y1439763D2*
D18*
X2492094D1*
X2492497Y1439360D1*
X2597420D1*
X2277485Y1439763D2*
X2407135D1*
X2409607Y1437290D1*
X1836227Y1336882D2*
X1974605D1*
X1977485Y1339763D1*
X1288521Y929769D2*
D17*
Y838193D1*
X1332334Y794379D1*
Y786323D1*
X1548733Y569924D1*
X1921976D1*
X1967723Y524177D1*
X2580172D1*
X3126362Y1070368D1*
Y1368512D1*
X3122658Y1372215D1*
Y2465714D1*
X2959504D1*
X2277485Y1239763D2*
D19*
X2647165D1*
X2701139Y1293736D1*
Y2487554D1*
X2788729Y2575146D1*
X2997080D1*
Y2465714D1*
X2959504D1*
X1304775Y2976530D2*
D17*
X1423511D1*
X1514695Y3067714D1*
Y3311719D1*
Y3438353D1*
X1713179Y1638820D2*
Y1439763D1*
X1977485D1*
X991424Y2200937D2*
X1089061Y2298575D1*
X1194647D1*
X871773Y1907349D2*
Y1971954D1*
X991424Y2091605D1*
Y2200937D1*
X1304775Y2550066D2*
Y2651357D1*
X1419497D1*
Y2663432D1*
X1441531D1*
X1713179Y1638820D2*
X1422187Y1929813D1*
Y2032733D1*
X1306631Y2148289D1*
Y2298575D1*
X1304775D1*
Y2550066D1*
X1194647Y2298575D2*
X1304775D1*
X2599417Y3389246D2*
Y3622255D1*
D18*
X2654619Y3677457D1*
X2924093D1*
X3150089Y3451461D1*
Y2782735D1*
Y2718713D1*
X3006522Y2575146D1*
D17*
X2997080D1*
X1514695Y3311719D2*
D18*
D3*
X2099571Y3623403D2*
D17*
Y3751233D1*
X2605206Y3517265D2*
D18*
Y3395034D1*
X2599417Y3389246D1*
X1441531Y2794492D2*
Y2663432D1*
X2099571Y3623403D2*
Y3292752D1*
X2097728Y3290910D1*
X2599417Y3389246D2*
Y3263633D1*
X2585296Y3249512D1*
X1195053Y794379D2*
X1332334D1*
X1296884Y1193275D2*
X1334068D1*
X1580556Y1439763D1*
X1713179D1*
X2927756Y2785265D2*
X3150089Y2782735D1*
X2277485Y1239763D2*
X2409580D1*
X2409607Y1239790D1*
X1836227Y1436882D2*
X1974605D1*
X1977485Y1439763D1*
X848712Y3018118D2*
D17*
X835333D1*
Y2821857D1*
X848712Y3018118D2*
Y3152612D1*
X873704Y3177604D1*
X1003703D1*
X835333Y2821857D2*
X772158D1*
X640504Y2690202D1*
X1003703Y3177604D2*
D18*
X919724D1*
X1003703Y3261583D1*
Y3297544D1*
X1713179Y2038820D2*
X1856241D1*
Y2039763D1*
X1977485D1*
X1713685Y2152196D2*
Y2039326D1*
X1713179Y2038820D1*
X1836227Y2036882D2*
X1974605D1*
X1977485Y2039763D1*
X1649622Y931463D2*
Y739763D1*
X1977485D1*
X1595053Y794379D2*
X1649622Y739763D1*
X1836227Y736882D2*
X1974605D1*
X1977485Y739763D1*
X1714695Y3438353D2*
Y3468057D1*
X1642729Y3540023D1*
X1464439D1*
X1410270Y3485853D1*
Y3135617D1*
X1343456Y3068803D1*
X1234139D1*
X1203703Y3099239D1*
Y3177604D1*
X1977485Y939763D2*
D19*
X2072610D1*
Y2110978D1*
X1923632Y2259956D1*
Y2915252D1*
X2182506D1*
X2399571Y3132317D1*
Y3623403D1*
X1714695Y3438353D2*
D18*
Y3311719D1*
Y3041319D1*
X1840762Y2915252D1*
X1923632D1*
X1203703Y3297544D2*
Y3177604D1*
X1714695Y3311719D2*
D3*
X2399571Y3751233D2*
Y3623403D1*
X1836227Y936882D2*
X1974605D1*
X1977485Y939763D1*
X1303703Y3177604D2*
Y3297544D1*
Y3339297D1*
X1313334D1*
Y3483952D1*
X1429882Y3600499D1*
X1744727D1*
X1811540Y3533685D1*
Y3486866D1*
Y3055285D1*
X1876305Y2990520D1*
X2161011D1*
X2299571Y3129079D1*
Y3623403D1*
X1814695Y3438353D2*
X1811540Y3486866D1*
X1977485Y839763D2*
D19*
X2061350D1*
X2128164Y906576D1*
Y2158629D1*
X1987738Y2299054D1*
Y2625449D1*
X2490361Y3128071D1*
Y3832958D1*
X2474584Y3848735D1*
X2299571D1*
Y3751233D1*
Y3623403D1*
X1303703Y3297544D2*
D18*
D3*
X1814695Y3311719D2*
X1811540Y3055285D1*
X2299571Y3751233D2*
D3*
X1836227Y836882D2*
X1974605D1*
X1977485Y839763D1*
X1741531Y2663432D2*
D20*
Y2500722D1*
X1617274Y2376465D1*
Y1978876D1*
X1656387Y1939763D1*
X1977485D1*
X1741531Y2794492D2*
D18*
Y2663432D1*
X1836227Y1936882D2*
X1974605D1*
X1977485Y1939763D1*
Y1839763D2*
D20*
X1657551D1*
X1554442Y1942872D1*
Y2415735D1*
X1645076Y2506369D1*
Y2663432D1*
X1641531D1*
Y2794492D2*
D18*
Y2663432D1*
X1836227Y1836882D2*
X1974605D1*
X1977485Y1839763D1*
X2277485D2*
X2492269D1*
X2510355Y1857849D1*
Y2075012D1*
X2407332Y2178036D1*
Y2766024D1*
X2577169Y2935861D1*
X2756304D1*
X2899417Y3078974D1*
Y3389246D1*
X2905206Y3517265D2*
Y3395034D1*
X2899417Y3389246D1*
X2277485Y1839763D2*
X2407134D1*
X2409607Y1837290D1*
X1914695Y3311719D2*
Y3438353D1*
X2277485Y1339763D2*
X2597022D1*
X2597425Y1339360D1*
X2277485Y1339763D2*
X2407135D1*
X2409607Y1337290D1*
X2805206Y3517265D2*
Y3395034D1*
X2799417Y3389246D1*
X2277485Y739763D2*
D19*
X2541065D1*
X2844605Y1043302D1*
Y2238439D1*
X2871880Y2265714D1*
X2959504D1*
X2277485Y739763D2*
D18*
X2409580D1*
X2409607Y739790D1*
X2277485Y839763D2*
D19*
X2544131D1*
X2767858Y1063490D1*
Y2291641D1*
X2841931Y2365714D1*
X2959504D1*
X2277485Y839763D2*
D18*
X2409580D1*
X2409607Y839790D1*
X1841531Y2794492D2*
Y2663432D1*
X2277485Y1739763D2*
X2537765D1*
X2570567Y1772563D1*
Y2160198D1*
X2497286Y2233478D1*
Y2245185D1*
X2277485Y1739763D2*
X2407134D1*
X2409607Y1737290D1*
X2497286Y2245185D2*
Y2501091D1*
X2527756Y2785265D2*
Y2531561D1*
X2497286Y2501091D1*
X1836227Y1736882D2*
X1974605D1*
X1977485Y1739763D1*
X1836227Y1636882D2*
X1974605D1*
X1977485Y1639763D1*
X1836227Y1536882D2*
X1974605D1*
X1977485Y1539763D1*
X1836227Y1236882D2*
X1974605D1*
X1977485Y1239763D1*
X2277485Y1139763D2*
X2409580D1*
X2409607Y1139790D1*
X2277485Y1039763D2*
X2409580D1*
X2409607Y1039790D1*
X2277485Y939763D2*
X2409580D1*
X2409607Y939790D1*
X2277485Y1539763D2*
X2407134D1*
X2409607Y1537290D1*
X2277485Y1639763D2*
X2407134D1*
X2409607Y1637290D1*
X2277485Y1939763D2*
X2407134D1*
X2409607Y1937290D1*
X2277485Y2039763D2*
X2407134D1*
X2409607Y2037290D1*
X1836227Y1136882D2*
X1974605D1*
X1977485Y1139763D1*
X1836227Y1036882D2*
X1974605D1*
X1977485Y1039763D1*
D23*
X3550404Y2465714D3*
X1977485Y2039763D3*
D24*
Y1939763D3*
Y1839763D3*
Y1739763D3*
Y1639763D3*
Y1539763D3*
Y1439763D3*
Y1339763D3*
Y1239763D3*
Y1139763D3*
Y1039763D3*
Y939763D3*
Y839763D3*
Y739763D3*
X2277485D3*
Y839763D3*
Y939763D3*
Y1039763D3*
Y1139763D3*
Y1239763D3*
Y1339763D3*
Y1439763D3*
Y1539763D3*
Y1639763D3*
Y1739763D3*
Y1839763D3*
Y1939763D3*
Y2039763D3*
D25*
X1232031Y1939600D3*
X1232042Y1541962D3*
D26*
X1713685Y2152196D3*
X1713681Y2329361D3*
X1457776Y2329356D3*
X1457780Y2152190D3*
D27*
X871780Y1707350D3*
D28*
X871777Y1807350D3*
X871773Y1907350D3*
D29*
X2599417Y3389246D3*
D30*
X2699417D3*
X2799417D3*
X2899417D3*
D29*
X1514695Y3438353D3*
D30*
X1614695D3*
X1714695D3*
X1814695D3*
X1914695D3*
D29*
X1003703Y3177604D3*
D30*
X1103703D3*
X1203703D3*
X1303703D3*
D25*
X640504Y2690202D3*
X764459Y2593514D3*
X639952Y2491444D3*
D32*
X1095769Y1289106D3*
X895769Y1289102D3*
D29*
X2099571Y3623403D3*
D30*
X2199571D3*
X2299571D3*
X2399571D3*
D29*
X1441531Y2663432D3*
D30*
X1541531D3*
X1641531D3*
X1741531D3*
X1841531D3*
D33*
X1194647Y2298575D3*
D34*
X1194651Y2198575D3*
D35*
X1365226Y1674715D3*
X1365222Y1774715D3*
X1356858Y1519348D3*
X1356863Y1419348D3*
D36*
X891424Y2200927D3*
X991424Y2200937D3*
X635224Y2323684D3*
X735224Y2323686D3*
X896006Y2464401D3*
X996006Y2464405D3*
D37*
X835333Y2821857D3*
D38*
X935333D3*
D36*
X948712Y3018118D3*
X848712D3*
D39*
X1649622Y1187369D3*
X1472456D3*
Y931463D3*
X1649622D3*
D40*
X1713179Y1638820D3*
Y2038820D3*
X1288521Y929769D3*
X1296884Y1193275D3*
D41*
X1304775Y2550066D3*
Y2976530D3*
D42*
X3655563Y2847873D3*
X3300496Y1169916D3*
D39*
X2497286Y2501091D3*
X2320120D3*
Y2245185D3*
X2497286D3*
D42*
X1153703Y2672487D3*
D40*
X1595053Y794379D3*
X1195053D3*
D43*
X2597425Y1339360D3*
X2597419Y1439360D3*
X2409607Y1337290D3*
Y1437290D3*
Y1537290D3*
Y1637290D3*
Y1737290D3*
Y1837290D3*
Y1937290D3*
Y2037290D3*
D29*
X1003703Y3297544D3*
D30*
X1103703D3*
X1203703D3*
X1303703D3*
D29*
X1514695Y3311719D3*
D30*
X1614695D3*
X1714695D3*
X1814695D3*
X1914695D3*
D29*
X2099571Y3751233D3*
D30*
X2199571D3*
X2299571D3*
X2399571D3*
D29*
X2605206Y3517265D3*
D30*
X2705206D3*
X2805206D3*
X2905206D3*
D29*
X1441531Y2794492D3*
D30*
X1541531D3*
X1641531D3*
X1741531D3*
X1841531D3*
D26*
X2097728Y3290910D3*
X2585296Y3249512D3*
X2102732Y3077416D3*
X2585296Y3080872D3*
D40*
X2927756Y2785265D3*
X2527756D3*
D43*
X1836227Y736882D3*
Y836882D3*
Y936882D3*
Y1036882D3*
Y1136882D3*
Y1236882D3*
Y1336882D3*
Y1436882D3*
Y1536882D3*
Y1636882D3*
Y1736882D3*
Y1836882D3*
Y1936882D3*
Y2036882D3*
X2409607Y1239790D3*
Y1139790D3*
Y1039790D3*
Y939790D3*
Y839790D3*
Y739790D3*
D23*
X2959504Y2465714D3*
D24*
Y2365714D3*
Y2265714D3*
Y2165714D3*
Y2065714D3*
Y1965714D3*
D44*
Y1865714D3*
D24*
Y1765714D3*
Y1665714D3*
Y1565714D3*
X3550404Y2365714D3*
Y2265714D3*
Y2165714D3*
Y2065714D3*
Y1965714D3*
D44*
Y1865714D3*
D24*
Y1765714D3*
Y1665714D3*
Y1565714D3*
X3234387Y2383243D2*
D88*
X3334867Y2364053D1*
X3234387Y2344952D1*
X3334867Y2325851D1*
X3234387Y2306661D1*
Y2271666D2*
X3334867D1*
Y2244871D1*
X3330003Y2233375D1*
X3320497Y2225681D1*
X3310880Y2221879D1*
X3296620Y2218076D1*
X3272633D1*
X3258263Y2221879D1*
X3248757Y2225681D1*
X3239140Y2233375D1*
X3234387Y2244871D1*
Y2271666D1*
X3334867Y2121798D2*
X3234387Y2152484D1*
X3334867Y2183081D1*
X3301373Y2171585D2*
Y2133294D1*
X3234387Y2063810D2*
X3239029Y2071415D1*
X3248646Y2079109D1*
X3258263Y2082911D1*
X3272633Y2086802D1*
X3296510D1*
X3310880Y2082911D1*
X3320386Y2079109D1*
X3330003Y2071415D1*
X3334756Y2063810D1*
Y2048512D1*
X3330003Y2040818D1*
X3320386Y2033213D1*
X3310880Y2029410D1*
X3296510Y2025519D1*
X3272633D1*
X3258263Y2029410D1*
X3248646Y2033213D1*
X3239029Y2040818D1*
X3234387Y2048512D1*
Y2063810D1*
X3315633Y2052314D2*
X3344373Y2029410D1*
X3234387Y1902469D2*
X3334867Y1871872D1*
X3234387Y1841275D1*
X3253621Y1806279D2*
X3248757Y1798586D1*
X3234497Y1787090D1*
X3334867D1*
X3325250Y1748292D2*
X3330114Y1752094D1*
X3334867Y1748292D1*
X3330114Y1744401D1*
X3325250Y1748292D1*
X3234497Y1686413D2*
X3239251Y1697909D1*
X3253621Y1705602D1*
X3277497Y1709405D1*
X3291867D1*
X3315744Y1705602D1*
X3330114Y1697909D1*
X3334867Y1686413D1*
Y1678808D1*
X3330114Y1667312D1*
X3315744Y1659707D1*
X3291867Y1655816D1*
X3277497D1*
X3253621Y1659707D1*
X3239251Y1667312D1*
X3234497Y1678808D1*
Y1686413D1*
X3253621Y1659707D2*
X3315744Y1705602D1*
G04 Bottom Clear*
%LPC*%
D45*
X3550404Y2465714D3*
X1977485Y2039763D3*
Y1939763D3*
Y1839763D3*
Y1739763D3*
Y1639763D3*
Y1539763D3*
Y1439763D3*
Y1339763D3*
Y1239763D3*
Y1139763D3*
Y1039763D3*
Y939763D3*
Y839763D3*
Y739763D3*
X2277485D3*
Y839763D3*
Y939763D3*
Y1039763D3*
Y1139763D3*
Y1239763D3*
Y1339763D3*
Y1439763D3*
Y1539763D3*
Y1639763D3*
Y1739763D3*
Y1839763D3*
Y1939763D3*
Y2039763D3*
D18*
X1232031Y1939600D3*
X1232042Y1541962D3*
D17*
X1713685Y2152196D3*
X1713681Y2329361D3*
X1457776Y2329356D3*
X1457780Y2152190D3*
D16*
X871780Y1707350D3*
X871777Y1807350D3*
X871773Y1907350D3*
D45*
X2599417Y3389246D3*
X2699417D3*
X2799417D3*
X2899417D3*
X1514695Y3438353D3*
X1614695D3*
X1714695D3*
X1814695D3*
X1914695D3*
X1003703Y3177604D3*
X1103703D3*
X1203703D3*
X1303703D3*
D18*
X640504Y2690202D3*
X764459Y2593514D3*
X639952Y2491444D3*
D46*
X1095769Y1289106D3*
X895769Y1289102D3*
D45*
X2099571Y3623403D3*
X2199571D3*
X2299571D3*
X2399571D3*
X1441531Y2663432D3*
X1541531D3*
X1641531D3*
X1741531D3*
X1841531D3*
D18*
X1194647Y2298575D3*
X1194651Y2198575D3*
X1365226Y1674715D3*
X1365222Y1774715D3*
X1356858Y1519348D3*
X1356863Y1419348D3*
X891424Y2200927D3*
X991424Y2200937D3*
X635224Y2323684D3*
X735224Y2323686D3*
X896006Y2464401D3*
X996006Y2464405D3*
X835333Y2821857D3*
X935333D3*
X948712Y3018118D3*
X848712D3*
D17*
X1649622Y1187369D3*
X1472456D3*
Y931463D3*
X1649622D3*
D18*
X1713179Y1638820D3*
Y2038820D3*
D45*
X1288521Y929769D3*
X1296884Y1193275D3*
X1304775Y2550066D3*
Y2976530D3*
D47*
X3655563Y2847873D3*
X3300496Y1169916D3*
D17*
X2497286Y2501091D3*
X2320120D3*
Y2245185D3*
X2497286D3*
D47*
X1153703Y2672487D3*
D18*
X1595053Y794379D3*
X1195053D3*
X2597425Y1339360D3*
X2597419Y1439360D3*
D45*
X2409607Y1337290D3*
Y1437290D3*
Y1537290D3*
Y1637290D3*
Y1737290D3*
Y1837290D3*
Y1937290D3*
Y2037290D3*
X1003703Y3297544D3*
X1103703D3*
X1203703D3*
X1303703D3*
X1514695Y3311719D3*
X1614695D3*
X1714695D3*
X1814695D3*
X1914695D3*
X2099571Y3751233D3*
X2199571D3*
X2299571D3*
X2399571D3*
X2605206Y3517265D3*
X2705206D3*
X2805206D3*
X2905206D3*
X1441531Y2794492D3*
X1541531D3*
X1641531D3*
X1741531D3*
X1841531D3*
X2097728Y3290910D3*
X2585296Y3249512D3*
X2102732Y3077416D3*
X2585296Y3080872D3*
D18*
X2927756Y2785265D3*
X2527756D3*
D45*
X1836227Y736882D3*
Y836882D3*
Y936882D3*
Y1036882D3*
Y1136882D3*
Y1236882D3*
Y1336882D3*
Y1436882D3*
Y1536882D3*
Y1636882D3*
Y1736882D3*
Y1836882D3*
Y1936882D3*
Y2036882D3*
X2409607Y1239790D3*
Y1139790D3*
Y1039790D3*
Y939790D3*
Y839790D3*
Y739790D3*
X2959504Y2465714D3*
Y2365714D3*
Y2265714D3*
Y2165714D3*
Y2065714D3*
Y1965714D3*
Y1865714D3*
Y1765714D3*
Y1665714D3*
Y1565714D3*
X3550404Y2365714D3*
Y2265714D3*
Y2165714D3*
Y2065714D3*
Y1965714D3*
Y1865714D3*
Y1765714D3*
Y1665714D3*
Y1565714D3*
M02*
