M48
INCH
T01C0.0315
T02C0.0354
T03C0.0394
T04C0.0433
T05C0.0472
T06C0.0787
%
T01
X+012320Y+019396
X+013652Y+017747
X+013652Y+016747
X+013569Y+015193
X+013569Y+014193
X+012320Y+015420
X+017132Y+016388
X+017132Y+020388
X+011947Y+021986
X+011946Y+022986
X+009914Y+022009
X+008914Y+022009
X+007352Y+023237
X+006352Y+023237
X+006400Y+024914
X+007645Y+025935
X+006405Y+026902
X+008353Y+028219
X+009353Y+028219
X+009487Y+030181
X+008487Y+030181
X+008960Y+024644
X+009960Y+024644
X+025278Y+027853
X+029278Y+027853
X+025974Y+014394
X+025974Y+013394
X+015951Y+007944
X+011951Y+007944
T02
X+035504Y+024657
X+035504Y+023657
X+035504Y+022657
X+035504Y+021657
X+035504Y+020657
X+035504Y+019657
X+035504Y+018657
X+035504Y+017657
X+035504Y+016657
X+035504Y+015657
X+029595Y+015657
X+029595Y+016657
X+029595Y+017657
X+029595Y+018657
X+029595Y+019657
X+029595Y+020657
X+029595Y+021657
X+029595Y+022657
X+029595Y+023657
X+029595Y+024657
X+024096Y+020373
X+024096Y+019373
X+024096Y+018373
X+024096Y+017373
X+024096Y+016373
X+024096Y+015373
X+024096Y+014373
X+024096Y+013373
X+024096Y+012398
X+024096Y+011398
X+024096Y+010398
X+024096Y+009398
X+024096Y+008398
X+024096Y+007398
X+022775Y+007398
X+022775Y+008398
X+022775Y+009398
X+022775Y+010398
X+022775Y+011398
X+022775Y+012398
X+022775Y+013398
X+022775Y+014398
X+022775Y+015398
X+022775Y+016398
X+022775Y+017398
X+022775Y+018398
X+022775Y+019398
X+022775Y+020398
X+019775Y+020398
X+019775Y+019398
X+019775Y+018398
X+019775Y+017398
X+019775Y+016398
X+019775Y+015398
X+019775Y+014398
X+019775Y+013398
X+019775Y+012398
X+019775Y+011398
X+019775Y+010398
X+019775Y+009398
X+019775Y+008398
X+019775Y+007398
X+018362Y+007369
X+018362Y+008369
X+018362Y+009369
X+018362Y+010369
X+018362Y+011369
X+018362Y+012369
X+018362Y+013369
X+018362Y+014369
X+018362Y+015369
X+018362Y+016369
X+018362Y+017369
X+018362Y+018369
X+018362Y+019369
X+018362Y+020369
X+018415Y+026634
X+017415Y+026634
X+016415Y+026634
X+015415Y+026634
X+014415Y+026634
X+014415Y+027945
X+015415Y+027945
X+016415Y+027945
X+017415Y+027945
X+018415Y+027945
X+021027Y+030774
X+020977Y+032909
X+019147Y+033117
X+018147Y+033117
X+017147Y+033117
X+016147Y+033117
X+015147Y+033117
X+015147Y+034384
X+016147Y+034384
X+017147Y+034384
X+018147Y+034384
X+019147Y+034384
X+020996Y+036234
X+021996Y+036234
X+022996Y+036234
X+023996Y+036234
X+023996Y+037512
X+022996Y+037512
X+021996Y+037512
X+020996Y+037512
X+026052Y+035173
X+027052Y+035173
X+028052Y+035173
X+029052Y+035173
X+028994Y+033892
X+027994Y+033892
X+026994Y+033892
X+025994Y+033892
X+025853Y+032495
X+025853Y+030809
X+013048Y+029765
X+013037Y+031776
X+012037Y+031776
X+011037Y+031776
X+010037Y+031776
X+010037Y+032975
X+011037Y+032975
X+012037Y+032975
X+013037Y+032975
X+013048Y+025501
X+012969Y+011933
X+012885Y+009298
T03
X+017137Y+021522
X+017137Y+023294
X+014578Y+023294
X+014578Y+021522
X+023201Y+022452
X+024973Y+022452
X+024973Y+025011
X+023201Y+025011
X+016496Y+011874
X+014725Y+011874
X+014725Y+009315
X+016496Y+009315
T04
X+010958Y+012891
X+008958Y+012891
T05
X+008718Y+017073
X+008718Y+018073
X+008718Y+019073
T06
X+036556Y+028479
X+033005Y+011699
X+011537Y+026725
T00
M30
